<?xml version="1.0" encoding="UTF-8"?>
<svg xmlns="http://www.w3.org/2000/svg" xmlns:xlink="http://www.w3.org/1999/xlink" width="417pt" height="156pt" viewBox="0 0 417 156" version="1.1">
<g id="surface1">
<path style=" stroke:none;fill-rule:nonzero;fill:rgb(0%,29.026794%,54.101563%);fill-opacity:1;" d="M 66.875 123.410156 L 59.648438 123.410156 L 59.785156 122.957031 C 60.257813 122.914063 60.609375 122.777344 60.84375 122.539063 C 61.074219 122.308594 61.1875 122.019531 61.1875 121.675781 C 61.1875 121.304688 61.058594 120.714844 60.804688 119.910156 L 59.03125 114.214844 L 57.277344 120.320313 C 57.078125 121 56.976563 121.492188 56.976563 121.796875 C 56.976563 122.140625 57.113281 122.417969 57.386719 122.628906 C 57.652344 122.839844 58.144531 122.949219 58.851563 122.957031 L 58.710938 123.410156 L 50.605469 123.410156 L 50.738281 122.957031 C 51.386719 122.941406 51.871094 122.851563 52.195313 122.695313 C 52.511719 122.539063 52.765625 122.296875 52.953125 121.96875 C 53.144531 121.640625 53.371094 121.015625 53.628906 120.085938 L 56.4375 110.359375 C 56.753906 109.246094 56.917969 108.535156 56.917969 108.230469 C 56.917969 107.949219 56.789063 107.710938 56.527344 107.503906 C 56.273438 107.296875 55.78125 107.183594 55.058594 107.160156 L 55.191406 106.699219 L 63.046875 106.699219 L 62.90625 107.160156 C 62.382813 107.160156 61.984375 107.234375 61.703125 107.390625 C 61.332031 107.605469 61.035156 107.914063 60.804688 108.328125 C 60.648438 108.601563 60.433594 109.226563 60.164063 110.210938 L 59.03125 114.207031 L 63.378906 110.210938 C 64.222656 109.433594 64.695313 108.964844 64.792969 108.808594 C 64.925781 108.601563 64.988281 108.386719 64.988281 108.15625 C 64.988281 107.90625 64.898438 107.699219 64.722656 107.515625 C 64.546875 107.335938 64.242188 107.214844 63.808594 107.160156 L 63.941406 106.699219 L 70.234375 106.699219 L 70.09375 107.160156 C 69.613281 107.199219 69.21875 107.269531 68.914063 107.367188 C 68.511719 107.5 68.054688 107.722656 67.539063 108.039063 C 67.019531 108.351563 66.496094 108.726563 65.960938 109.152344 L 64.816406 110.210938 L 62.171875 112.59375 L 64.140625 118.753906 C 64.78125 120.78125 65.277344 121.980469 65.628906 122.351563 C 65.984375 122.722656 66.441406 122.921875 67.007813 122.957031 Z M 74.960938 111.988281 L 73.429688 117.273438 C 74.457031 115.730469 75.222656 114.675781 75.730469 114.105469 C 76.480469 113.285156 77.121094 112.726563 77.664063 112.433594 C 78.207031 112.132813 78.714844 111.988281 79.1875 111.988281 C 79.617188 111.988281 79.980469 112.148438 80.285156 112.464844 C 80.585938 112.777344 80.742188 113.191406 80.742188 113.699219 C 80.742188 114.160156 80.640625 114.722656 80.445313 115.378906 L 78.871094 120.640625 C 78.738281 121.097656 78.671875 121.398438 78.671875 121.539063 C 78.671875 121.621094 78.707031 121.695313 78.765625 121.757813 C 78.828125 121.824219 78.890625 121.859375 78.957031 121.859375 C 79.039063 121.859375 79.125 121.824219 79.214844 121.757813 C 79.503906 121.523438 79.792969 121.1875 80.089844 120.75 C 80.164063 120.636719 80.28125 120.460938 80.445313 120.230469 L 80.914063 120.515625 C 79.707031 122.542969 78.441406 123.558594 77.109375 123.558594 C 76.601563 123.558594 76.203125 123.429688 75.917969 123.164063 C 75.632813 122.902344 75.488281 122.574219 75.488281 122.179688 C 75.488281 121.835938 75.585938 121.320313 75.78125 120.640625 L 77.320313 115.378906 C 77.425781 115.03125 77.480469 114.777344 77.480469 114.613281 C 77.480469 114.523438 77.441406 114.445313 77.371094 114.371094 C 77.292969 114.300781 77.210938 114.265625 77.109375 114.265625 C 76.796875 114.265625 76.421875 114.480469 75.980469 114.910156 C 74.84375 115.992188 73.75 117.605469 72.691406 119.753906 L 71.683594 123.410156 L 68.546875 123.410156 L 70.847656 115.5 C 71.070313 114.722656 71.179688 114.164063 71.179688 113.839844 C 71.179688 113.695313 71.144531 113.582031 71.082031 113.484375 C 71.015625 113.390625 70.910156 113.316406 70.761719 113.261719 C 70.613281 113.210938 70.335938 113.183594 69.921875 113.183594 L 70.0625 112.714844 L 74.207031 111.988281 Z M 90.527344 111.988281 C 91.171875 111.988281 91.78125 112.140625 92.351563 112.4375 C 92.917969 112.734375 93.351563 113.15625 93.644531 113.6875 C 93.9375 114.21875 94.078125 114.8125 94.078125 115.460938 C 94.078125 116.792969 93.710938 118.125 92.964844 119.457031 C 92.222656 120.785156 91.246094 121.835938 90.035156 122.601563 C 88.816406 123.375 87.59375 123.757813 86.363281 123.757813 C 85.25 123.757813 84.386719 123.425781 83.777344 122.757813 C 83.164063 122.09375 82.855469 121.277344 82.855469 120.320313 C 82.855469 119.175781 83.085938 118.105469 83.539063 117.105469 C 83.996094 116.109375 84.574219 115.238281 85.273438 114.496094 C 85.976563 113.753906 86.78125 113.148438 87.695313 112.683594 C 88.605469 112.21875 89.546875 111.988281 90.527344 111.988281 Z M 90.023438 112.640625 C 89.585938 112.640625 89.222656 112.769531 88.9375 113.023438 C 88.363281 113.539063 87.714844 114.75 86.992188 116.652344 C 86.269531 118.554688 85.910156 120.269531 85.910156 121.796875 C 85.910156 122.175781 86.023438 122.484375 86.253906 122.734375 C 86.484375 122.976563 86.753906 123.105469 87.066406 123.105469 C 87.386719 123.105469 87.667969 123.003906 87.917969 122.804688 C 88.277344 122.511719 88.71875 121.847656 89.246094 120.816406 C 89.769531 119.785156 90.203125 118.648438 90.539063 117.40625 C 90.875 116.160156 91.042969 115.019531 91.042969 113.984375 C 91.042969 113.554688 90.9375 113.226563 90.730469 112.992188 C 90.53125 112.757813 90.289063 112.640625 90.023438 112.640625 Z M 105.683594 111.988281 L 106.597656 120.640625 C 107.835938 119.414063 108.640625 118.449219 109.019531 117.738281 C 109.398438 117.027344 109.585938 116.433594 109.585938 115.957031 C 109.585938 115.777344 109.546875 115.597656 109.460938 115.414063 C 109.382813 115.234375 109.21875 114.980469 108.96875 114.664063 C 108.726563 114.34375 108.582031 114.140625 108.554688 114.058594 C 108.496094 113.902344 108.464844 113.710938 108.464844 113.492188 C 108.464844 113.074219 108.609375 112.71875 108.898438 112.425781 C 109.183594 112.132813 109.546875 111.988281 109.980469 111.988281 C 110.414063 111.988281 110.757813 112.132813 111.015625 112.433594 C 111.375 112.859375 111.558594 113.351563 111.558594 113.910156 C 111.558594 114.824219 111.121094 116.015625 110.25 117.496094 C 109.382813 118.972656 107.394531 121.058594 104.296875 123.757813 L 103.804688 123.757813 L 103.039063 116.191406 L 97.726563 123.757813 L 97.195313 123.757813 C 97.316406 121.472656 97.378906 119.335938 97.378906 117.351563 C 97.378906 116.050781 97.308594 115.113281 97.171875 114.539063 C 97.085938 114.203125 96.945313 113.949219 96.734375 113.773438 C 96.523438 113.601563 96.296875 113.515625 96.050781 113.515625 C 95.917969 113.515625 95.75 113.53125 95.542969 113.566406 L 95.542969 113.109375 L 99.78125 111.988281 C 100.011719 112.632813 100.164063 113.230469 100.246094 113.800781 C 100.382813 114.671875 100.453125 115.683594 100.453125 116.839844 C 100.453125 117.253906 100.4375 117.878906 100.40625 118.71875 L 105.167969 111.988281 Z M 127.480469 107.625 L 125.621094 114.105469 L 126.1875 114.105469 C 127.679688 114.105469 128.769531 113.910156 129.453125 113.515625 C 130.140625 113.121094 130.71875 112.425781 131.195313 111.417969 L 131.652344 111.417969 L 129.777344 117.925781 L 129.351563 117.925781 C 129.421875 117.492188 129.460938 117.140625 129.460938 116.867188 C 129.460938 116.417969 129.328125 116.046875 129.058594 115.761719 C 128.796875 115.46875 128.445313 115.265625 128.019531 115.140625 C 127.742188 115.0625 127.160156 115.019531 126.28125 115.019531 L 125.324219 115.019531 L 123.726563 120.628906 C 123.585938 121.117188 123.515625 121.484375 123.515625 121.722656 C 123.515625 121.914063 123.609375 122.066406 123.789063 122.179688 C 124.046875 122.34375 124.546875 122.425781 125.273438 122.425781 C 126.679688 122.425781 128 122.128906 129.242188 121.53125 C 130.476563 120.9375 131.589844 120.035156 132.570313 118.828125 L 133.078125 118.828125 L 131.34375 123.410156 L 117.066406 123.410156 L 117.214844 122.957031 C 118.050781 122.957031 118.664063 122.796875 119.050781 122.480469 C 119.4375 122.167969 119.785156 121.46875 120.097656 120.390625 L 123.234375 109.636719 C 123.40625 109.035156 123.488281 108.5625 123.488281 108.21875 C 123.488281 107.902344 123.382813 107.664063 123.160156 107.496094 C 122.941406 107.328125 122.433594 107.214844 121.644531 107.160156 L 121.78125 106.699219 L 135.082031 106.699219 L 134.011719 110.878906 L 133.570313 110.878906 C 133.535156 110.054688 133.410156 109.476563 133.1875 109.140625 C 132.84375 108.613281 132.386719 108.230469 131.816406 107.988281 C 131.246094 107.746094 130.320313 107.625 129.042969 107.625 Z M 141.496094 111.988281 L 139.96875 117.273438 C 140.992188 115.730469 141.761719 114.675781 142.269531 114.105469 C 143.019531 113.285156 143.660156 112.726563 144.203125 112.433594 C 144.742188 112.132813 145.253906 111.988281 145.726563 111.988281 C 146.15625 111.988281 146.519531 112.148438 146.824219 112.464844 C 147.125 112.777344 147.28125 113.191406 147.28125 113.699219 C 147.28125 114.160156 147.179688 114.722656 146.984375 115.378906 L 145.40625 120.640625 C 145.277344 121.097656 145.210938 121.398438 145.210938 121.539063 C 145.210938 121.621094 145.242188 121.695313 145.300781 121.757813 C 145.363281 121.824219 145.429688 121.859375 145.496094 121.859375 C 145.574219 121.859375 145.664063 121.824219 145.753906 121.757813 C 146.042969 121.523438 146.332031 121.1875 146.625 120.75 C 146.699219 120.636719 146.820313 120.460938 146.984375 120.230469 L 147.453125 120.515625 C 146.242188 122.542969 144.980469 123.558594 143.648438 123.558594 C 143.140625 123.558594 142.738281 123.429688 142.453125 123.164063 C 142.167969 122.902344 142.027344 122.574219 142.027344 122.179688 C 142.027344 121.835938 142.121094 121.320313 142.320313 120.640625 L 143.859375 115.378906 C 143.964844 115.03125 144.015625 114.777344 144.015625 114.613281 C 144.015625 114.523438 143.980469 114.445313 143.90625 114.371094 C 143.832031 114.300781 143.746094 114.265625 143.648438 114.265625 C 143.335938 114.265625 142.960938 114.480469 142.519531 114.910156 C 141.382813 115.992188 140.285156 117.605469 139.230469 119.753906 L 138.222656 123.410156 L 135.082031 123.410156 L 137.386719 115.5 C 137.605469 114.722656 137.71875 114.164063 137.71875 113.839844 C 137.71875 113.695313 137.683594 113.582031 137.621094 113.484375 C 137.554688 113.390625 137.449219 113.316406 137.300781 113.261719 C 137.148438 113.210938 136.871094 113.183594 136.460938 113.183594 L 136.597656 112.714844 L 140.746094 111.988281 Z M 158.523438 112.738281 L 161.800781 112.738281 L 161.40625 114.09375 L 159.710938 114.09375 C 159.96875 114.578125 160.101563 115.039063 160.101563 115.472656 C 160.101563 116.222656 159.898438 116.914063 159.492188 117.542969 C 159.089844 118.179688 158.488281 118.683594 157.699219 119.0625 C 156.902344 119.441406 156.027344 119.628906 155.054688 119.628906 C 154.804688 119.628906 154.523438 119.609375 154.210938 119.570313 C 153.90625 119.539063 153.574219 119.484375 153.210938 119.417969 C 152.671875 119.699219 152.328125 119.921875 152.191406 120.085938 C 152.089844 120.199219 152.039063 120.320313 152.039063 120.441406 C 152.039063 120.589844 152.101563 120.714844 152.226563 120.824219 C 152.4375 121.015625 152.753906 121.152344 153.175781 121.242188 C 154.847656 121.601563 155.949219 121.898438 156.484375 122.117188 C 157.214844 122.421875 157.765625 122.808594 158.140625 123.289063 C 158.511719 123.765625 158.695313 124.339844 158.695313 125.015625 C 158.695313 126.039063 158.226563 126.9375 157.28125 127.707031 C 156.339844 128.476563 154.878906 128.859375 152.902344 128.859375 C 150.910156 128.859375 149.441406 128.53125 148.5 127.875 C 147.820313 127.394531 147.472656 126.828125 147.472656 126.171875 C 147.472656 125.667969 147.699219 125.207031 148.144531 124.777344 C 148.597656 124.351563 149.554688 123.976563 151.019531 123.648438 C 150.519531 123.363281 150.183594 123.113281 150.011719 122.882813 C 149.773438 122.570313 149.652344 122.246094 149.652344 121.910156 C 149.652344 121.359375 149.871094 120.871094 150.3125 120.453125 C 150.75 120.035156 151.488281 119.621094 152.523438 119.210938 C 151.71875 118.890625 151.136719 118.476563 150.78125 117.972656 C 150.421875 117.464844 150.246094 116.875 150.246094 116.203125 C 150.246094 115.488281 150.460938 114.808594 150.890625 114.160156 C 151.320313 113.519531 151.957031 112.992188 152.800781 112.59375 C 153.640625 112.1875 154.605469 111.988281 155.695313 111.988281 C 156.394531 111.988281 157.011719 112.066406 157.554688 112.222656 C 157.832031 112.300781 158.15625 112.476563 158.523438 112.738281 Z M 155.953125 112.59375 C 155.550781 112.59375 155.210938 112.722656 154.933594 112.984375 C 154.488281 113.386719 154.101563 114.0625 153.769531 115.007813 C 153.4375 115.953125 153.269531 116.84375 153.269531 117.695313 C 153.269531 118.09375 153.386719 118.414063 153.621094 118.648438 C 153.855469 118.882813 154.144531 119 154.488281 119 C 154.824219 119 155.117188 118.886719 155.363281 118.65625 C 155.832031 118.203125 156.234375 117.480469 156.582031 116.492188 C 156.925781 115.503906 157.097656 114.605469 157.097656 113.800781 C 157.097656 113.4375 156.988281 113.148438 156.765625 112.925781 C 156.546875 112.703125 156.273438 112.59375 155.953125 112.59375 Z M 151.707031 123.929688 C 150.929688 124.230469 150.398438 124.558594 150.117188 124.914063 C 149.832031 125.265625 149.691406 125.648438 149.691406 126.0625 C 149.691406 126.59375 149.972656 127.078125 150.53125 127.507813 C 151.09375 127.941406 151.992188 128.15625 153.226563 128.15625 C 154.25 128.15625 154.992188 127.96875 155.449219 127.597656 C 155.910156 127.222656 156.140625 126.785156 156.140625 126.285156 C 156.140625 125.839844 155.929688 125.476563 155.503906 125.199219 C 155.082031 124.917969 154.273438 124.625 153.074219 124.324219 C 152.519531 124.175781 152.0625 124.042969 151.707031 123.929688 Z M 169.355469 106.320313 L 165.285156 120.195313 C 165.046875 121.019531 164.925781 121.53125 164.925781 121.738281 C 164.925781 121.84375 164.960938 121.929688 165.03125 122.007813 C 165.097656 122.082031 165.175781 122.117188 165.257813 122.117188 C 165.40625 122.117188 165.542969 122.0625 165.675781 121.945313 C 166.070313 121.625 166.511719 121.082031 166.992188 120.320313 L 167.472656 120.539063 C 166.695313 121.789063 165.925781 122.679688 165.171875 123.214844 C 164.652344 123.574219 164.101563 123.757813 163.523438 123.757813 C 162.980469 123.757813 162.550781 123.609375 162.230469 123.320313 C 161.910156 123.027344 161.75 122.675781 161.75 122.265625 C 161.75 121.960938 161.847656 121.472656 162.046875 120.800781 L 165.367188 109.4375 C 165.546875 108.8125 165.640625 108.398438 165.640625 108.195313 C 165.640625 107.996094 165.550781 107.839844 165.378906 107.722656 C 165.148438 107.558594 164.800781 107.492188 164.335938 107.515625 L 164.46875 107.046875 L 168.617188 106.320313 Z M 174.046875 106.320313 C 174.554688 106.320313 174.980469 106.5 175.332031 106.847656 C 175.679688 107.199219 175.851563 107.628906 175.851563 108.128906 C 175.851563 108.632813 175.675781 109.058594 175.324219 109.414063 C 174.96875 109.765625 174.546875 109.945313 174.046875 109.945313 C 173.550781 109.945313 173.128906 109.765625 172.777344 109.414063 C 172.425781 109.058594 172.246094 108.632813 172.246094 108.128906 C 172.246094 107.628906 172.421875 107.199219 172.769531 106.847656 C 173.117188 106.5 173.546875 106.320313 174.046875 106.320313 Z M 174.804688 111.988281 L 172.285156 120.75 C 172.148438 121.25 172.074219 121.578125 172.074219 121.738281 C 172.074219 121.824219 172.113281 121.910156 172.183594 121.988281 C 172.261719 122.066406 172.335938 122.101563 172.421875 122.101563 C 172.558594 122.101563 172.695313 122.042969 172.839844 121.917969 C 173.203125 121.613281 173.652344 121.0625 174.167969 120.269531 L 174.589844 120.515625 C 173.347656 122.675781 172.03125 123.757813 170.636719 123.757813 C 170.101563 123.757813 169.675781 123.605469 169.363281 123.304688 C 169.046875 123.007813 168.886719 122.625 168.886719 122.167969 C 168.886719 121.863281 168.960938 121.476563 169.097656 121.007813 L 170.808594 115.117188 C 170.972656 114.554688 171.054688 114.125 171.054688 113.839844 C 171.054688 113.65625 170.976563 113.496094 170.820313 113.355469 C 170.664063 113.214844 170.449219 113.148438 170.183594 113.148438 C 170.054688 113.148438 169.90625 113.152344 169.734375 113.15625 L 169.894531 112.664063 L 174.070313 111.988281 Z M 184.761719 111.988281 L 184.222656 115.792969 L 183.765625 115.792969 C 183.703125 114.808594 183.398438 114.035156 182.863281 113.46875 C 182.324219 112.898438 181.75 112.617188 181.132813 112.617188 C 180.753906 112.617188 180.441406 112.726563 180.199219 112.949219 C 179.953125 113.167969 179.828125 113.4375 179.828125 113.75 C 179.828125 114.015625 179.878906 114.257813 179.988281 114.488281 C 180.09375 114.722656 180.335938 115.03125 180.703125 115.429688 C 181.996094 116.824219 182.785156 117.78125 183.0625 118.308594 C 183.34375 118.835938 183.484375 119.398438 183.484375 119.996094 C 183.484375 120.648438 183.320313 121.261719 182.992188 121.839844 C 182.660156 122.417969 182.171875 122.886719 181.519531 123.234375 C 180.867188 123.582031 180.191406 123.757813 179.484375 123.757813 C 179.007813 123.757813 178.421875 123.664063 177.726563 123.472656 C 177.261719 123.339844 176.917969 123.277344 176.691406 123.277344 C 176.484375 123.277344 176.328125 123.304688 176.210938 123.367188 C 176.097656 123.429688 175.96875 123.558594 175.828125 123.757813 L 175.371094 123.757813 L 175.976563 119.652344 L 176.367188 119.652344 C 176.660156 120.648438 176.925781 121.355469 177.175781 121.78125 C 177.425781 122.199219 177.757813 122.535156 178.179688 122.789063 C 178.597656 123.039063 178.996094 123.164063 179.382813 123.164063 C 179.839844 123.164063 180.207031 123.023438 180.507813 122.738281 C 180.800781 122.457031 180.945313 122.117188 180.945313 121.722656 C 180.945313 121.339844 180.851563 120.964844 180.65625 120.601563 C 180.464844 120.238281 180.023438 119.675781 179.324219 118.914063 C 178.363281 117.871094 177.734375 117.0625 177.425781 116.496094 C 177.21875 116.089844 177.109375 115.617188 177.109375 115.089844 C 177.109375 114.207031 177.429688 113.46875 178.074219 112.875 C 178.71875 112.28125 179.625 111.988281 180.789063 111.988281 C 181.296875 111.988281 181.921875 112.082031 182.65625 112.261719 C 183.027344 112.347656 183.324219 112.394531 183.542969 112.394531 C 183.867188 112.394531 184.121094 112.261719 184.320313 111.988281 Z M 193.476563 106.320313 L 190.277344 117.421875 C 191.386719 115.785156 192.1875 114.683594 192.6875 114.105469 C 193.433594 113.277344 194.078125 112.71875 194.613281 112.425781 C 195.152344 112.132813 195.664063 111.988281 196.15625 111.988281 C 196.578125 111.988281 196.933594 112.148438 197.234375 112.464844 C 197.535156 112.777344 197.683594 113.199219 197.683594 113.722656 C 197.683594 114.171875 197.585938 114.726563 197.386719 115.390625 L 195.824219 120.640625 C 195.6875 121.097656 195.613281 121.40625 195.613281 121.566406 C 195.613281 121.636719 195.644531 121.703125 195.703125 121.765625 C 195.761719 121.828125 195.824219 121.859375 195.898438 121.859375 C 195.996094 121.859375 196.097656 121.816406 196.195313 121.738281 C 196.460938 121.53125 196.734375 121.203125 197.03125 120.75 C 197.105469 120.636719 197.222656 120.460938 197.386719 120.230469 L 197.871094 120.503906 C 197.164063 121.667969 196.492188 122.46875 195.863281 122.90625 C 195.230469 123.339844 194.632813 123.558594 194.066406 123.558594 C 193.558594 123.558594 193.15625 123.429688 192.871094 123.164063 C 192.585938 122.902344 192.441406 122.574219 192.441406 122.179688 C 192.441406 121.816406 192.539063 121.304688 192.738281 120.640625 L 194.261719 115.390625 C 194.363281 115.027344 194.410156 114.761719 194.410156 114.597656 C 194.410156 114.511719 194.375 114.429688 194.304688 114.359375 C 194.238281 114.292969 194.15625 114.253906 194.066406 114.253906 C 193.769531 114.253906 193.363281 114.503906 192.847656 114.996094 C 191.78125 116.003906 190.714844 117.589844 189.648438 119.753906 L 188.554688 123.410156 L 185.5 123.410156 L 189.535156 109.484375 C 189.699219 108.894531 189.785156 108.472656 189.785156 108.21875 C 189.785156 108.011719 189.699219 107.851563 189.535156 107.734375 C 189.324219 107.578125 188.996094 107.515625 188.554688 107.542969 L 188.636719 107.046875 L 192.738281 106.320313 Z M 202.40625 119.714844 C 202.972656 119.714844 203.453125 119.910156 203.847656 120.308594 C 204.242188 120.699219 204.441406 121.175781 204.441406 121.738281 C 204.441406 122.292969 204.238281 122.773438 203.84375 123.164063 C 203.445313 123.558594 202.964844 123.757813 202.40625 123.757813 C 201.851563 123.757813 201.371094 123.558594 200.984375 123.164063 C 200.589844 122.773438 200.390625 122.292969 200.390625 121.738281 C 200.390625 121.175781 200.589844 120.699219 200.984375 120.308594 C 201.371094 119.910156 201.851563 119.714844 202.40625 119.714844 "/>
<path style=" stroke:none;fill-rule:nonzero;fill:rgb(0%,29.026794%,54.101563%);fill-opacity:1;" d="M 223.21875 28.121094 L 237.320313 28.121094 L 226.488281 79.476563 L 212.386719 79.476563 L 223.21875 28.121094 "/>
<path style=" stroke:none;fill-rule:nonzero;fill:rgb(0%,29.026794%,54.101563%);fill-opacity:1;" d="M 173.074219 28.121094 L 214.179688 28.121094 L 211.6875 39.929688 L 184.03125 39.929688 L 181.949219 47.871094 L 207.742188 47.871094 L 205.410156 58.851563 L 179.664063 58.851563 L 177.140625 68.828125 L 206.621094 68.828125 L 204.152344 79.476563 L 162.296875 79.476563 L 173.074219 28.121094 "/>
<path style=" stroke:none;fill-rule:nonzero;fill:rgb(0%,29.026794%,54.101563%);fill-opacity:1;" d="M 108.117188 54.375 C 109.226563 45.761719 112.363281 39.050781 117.515625 34.261719 C 122.679688 29.457031 129.308594 27.058594 137.414063 27.058594 C 145.726563 27.058594 151.832031 29.417969 155.726563 34.136719 C 159.609375 38.84375 161.015625 45.453125 159.925781 53.945313 C 159.132813 60.113281 157.496094 65.175781 155.023438 69.117188 C 152.554688 73.0625 149.320313 76.132813 145.332031 78.332031 C 141.328125 80.53125 136.570313 81.625 131.023438 81.625 C 125.398438 81.625 120.855469 80.679688 117.402344 78.789063 C 113.960938 76.882813 111.359375 73.886719 109.582031 69.78125 C 107.820313 65.679688 107.328125 60.542969 108.117188 54.375 Z M 121.816406 54.695313 C 120.855469 62.527344 123.222656 69.5 131.679688 69.78125 C 141.371094 70.101563 145.445313 60.984375 146.617188 52.753906 C 147.664063 45.402344 145.582031 38.015625 137.4375 38.015625 C 128.164063 38.015625 122.777344 46.863281 121.816406 54.695313 "/>
<path style=" stroke:none;fill-rule:nonzero;fill:rgb(0%,29.026794%,54.101563%);fill-opacity:1;" d="M 65.441406 28.121094 L 110.988281 28.121094 L 108.117188 40.808594 L 92.832031 40.808594 L 84.078125 79.476563 L 69.09375 79.476563 L 77.847656 40.808594 L 62.570313 40.808594 L 65.441406 28.121094 "/>
<path style=" stroke:none;fill-rule:nonzero;fill:rgb(0%,29.026794%,54.101563%);fill-opacity:1;" d="M 227.042969 123.597656 L 219.722656 123.597656 L 219.859375 123.144531 C 220.339844 123.101563 220.695313 122.964844 220.929688 122.726563 C 221.164063 122.496094 221.28125 122.207031 221.28125 121.863281 C 221.28125 121.492188 221.152344 120.902344 220.894531 120.097656 L 219.097656 114.402344 L 217.316406 120.507813 C 217.117188 121.1875 217.015625 121.679688 217.015625 121.984375 C 217.015625 122.328125 217.152344 122.605469 217.429688 122.816406 C 217.699219 123.027344 218.199219 123.136719 218.914063 123.144531 L 218.773438 123.597656 L 210.558594 123.597656 L 210.695313 123.144531 C 211.351563 123.128906 211.839844 123.039063 212.167969 122.882813 C 212.492188 122.726563 212.746094 122.484375 212.9375 122.15625 C 213.128906 121.828125 213.359375 121.203125 213.625 120.273438 L 216.46875 110.546875 C 216.789063 109.433594 216.957031 108.722656 216.957031 108.417969 C 216.957031 108.136719 216.824219 107.898438 216.5625 107.691406 C 216.300781 107.484375 215.804688 107.371094 215.070313 107.347656 L 215.207031 106.886719 L 223.164063 106.886719 L 223.027344 107.347656 C 222.492188 107.347656 222.089844 107.421875 221.804688 107.578125 C 221.429688 107.792969 221.128906 108.101563 220.894531 108.515625 C 220.734375 108.789063 220.519531 109.414063 220.246094 110.398438 L 219.097656 114.394531 L 223.503906 110.398438 C 224.359375 109.621094 224.835938 109.152344 224.9375 108.996094 C 225.066406 108.789063 225.132813 108.574219 225.132813 108.34375 C 225.132813 108.09375 225.042969 107.882813 224.863281 107.703125 C 224.683594 107.523438 224.378906 107.402344 223.9375 107.347656 L 224.074219 106.886719 L 230.449219 106.886719 L 230.308594 107.347656 C 229.816406 107.386719 229.417969 107.457031 229.113281 107.554688 C 228.703125 107.6875 228.238281 107.910156 227.714844 108.226563 C 227.191406 108.539063 226.660156 108.914063 226.121094 109.339844 L 224.957031 110.398438 L 222.28125 112.78125 L 224.273438 118.941406 C 224.925781 120.96875 225.425781 122.167969 225.785156 122.539063 C 226.140625 122.910156 226.605469 123.109375 227.179688 123.144531 Z M 234.980469 112.175781 L 233.433594 117.460938 C 234.46875 115.917969 235.25 114.863281 235.765625 114.292969 C 236.519531 113.472656 237.171875 112.914063 237.722656 112.621094 C 238.269531 112.320313 238.785156 112.175781 239.265625 112.175781 C 239.699219 112.175781 240.070313 112.335938 240.378906 112.648438 C 240.683594 112.964844 240.839844 113.378906 240.839844 113.886719 C 240.839844 114.347656 240.738281 114.910156 240.539063 115.566406 L 238.941406 120.828125 C 238.8125 121.285156 238.742188 121.582031 238.742188 121.726563 C 238.742188 121.808594 238.777344 121.882813 238.835938 121.945313 C 238.902344 122.011719 238.964844 122.046875 239.03125 122.046875 C 239.113281 122.046875 239.203125 122.011719 239.292969 121.945313 C 239.585938 121.710938 239.878906 121.375 240.175781 120.9375 C 240.253906 120.824219 240.371094 120.648438 240.539063 120.417969 L 241.015625 120.703125 C 239.789063 122.730469 238.507813 123.746094 237.160156 123.746094 C 236.644531 123.746094 236.242188 123.613281 235.949219 123.351563 C 235.660156 123.089844 235.515625 122.761719 235.515625 122.367188 C 235.515625 122.023438 235.613281 121.507813 235.816406 120.828125 L 237.371094 115.566406 C 237.480469 115.21875 237.535156 114.964844 237.535156 114.800781 C 237.535156 114.710938 237.496094 114.632813 237.421875 114.558594 C 237.347656 114.488281 237.261719 114.453125 237.160156 114.453125 C 236.84375 114.453125 236.460938 114.667969 236.015625 115.097656 C 234.867188 116.179688 233.753906 117.792969 232.683594 119.941406 L 231.660156 123.597656 L 228.480469 123.597656 L 230.8125 115.6875 C 231.039063 114.910156 231.148438 114.351563 231.148438 114.027344 C 231.148438 113.882813 231.117188 113.769531 231.050781 113.671875 C 230.984375 113.578125 230.878906 113.503906 230.730469 113.449219 C 230.574219 113.398438 230.296875 113.367188 229.878906 113.367188 L 230.019531 112.902344 L 234.21875 112.175781 Z M 250.242188 112.175781 C 250.898438 112.175781 251.515625 112.328125 252.09375 112.625 C 252.667969 112.921875 253.105469 113.34375 253.402344 113.875 C 253.699219 114.40625 253.84375 115 253.84375 115.648438 C 253.84375 116.980469 253.46875 118.3125 252.714844 119.644531 C 251.964844 120.972656 250.976563 122.023438 249.746094 122.789063 C 248.511719 123.558594 247.273438 123.945313 246.023438 123.945313 C 244.898438 123.945313 244.019531 123.609375 243.402344 122.945313 C 242.78125 122.28125 242.472656 121.464844 242.472656 120.507813 C 242.472656 119.363281 242.707031 118.292969 243.164063 117.292969 C 243.625 116.296875 244.210938 115.425781 244.921875 114.679688 C 245.632813 113.941406 246.449219 113.335938 247.375 112.871094 C 248.296875 112.40625 249.253906 112.175781 250.242188 112.175781 Z M 249.730469 112.828125 C 249.289063 112.828125 248.921875 112.957031 248.632813 113.210938 C 248.050781 113.726563 247.394531 114.9375 246.664063 116.839844 C 245.933594 118.742188 245.566406 120.457031 245.566406 121.984375 C 245.566406 122.363281 245.679688 122.671875 245.914063 122.921875 C 246.148438 123.164063 246.421875 123.292969 246.734375 123.292969 C 247.0625 123.292969 247.347656 123.191406 247.601563 122.992188 C 247.964844 122.699219 248.414063 122.035156 248.945313 121.003906 C 249.476563 119.972656 249.914063 118.835938 250.257813 117.59375 C 250.597656 116.347656 250.765625 115.207031 250.765625 114.171875 C 250.765625 113.742188 250.660156 113.414063 250.453125 113.179688 C 250.246094 112.945313 250.003906 112.828125 249.730469 112.828125 Z M 265.859375 112.175781 L 266.78125 120.828125 C 268.039063 119.601563 268.855469 118.636719 269.238281 117.925781 C 269.621094 117.214844 269.8125 116.621094 269.8125 116.144531 C 269.8125 115.964844 269.769531 115.785156 269.683594 115.601563 C 269.605469 115.421875 269.4375 115.167969 269.1875 114.851563 C 268.941406 114.53125 268.796875 114.328125 268.765625 114.242188 C 268.707031 114.089844 268.675781 113.898438 268.675781 113.679688 C 268.675781 113.261719 268.820313 112.90625 269.113281 112.613281 C 269.402344 112.320313 269.769531 112.175781 270.210938 112.175781 C 270.652344 112.175781 271 112.320313 271.257813 112.621094 C 271.625 113.046875 271.808594 113.539063 271.808594 114.097656 C 271.808594 115.011719 271.367188 116.203125 270.484375 117.683594 C 269.605469 119.160156 267.589844 121.246094 264.449219 123.945313 L 263.953125 123.945313 L 263.175781 116.378906 L 257.792969 123.945313 L 257.257813 123.945313 C 257.378906 121.660156 257.445313 119.523438 257.445313 117.539063 C 257.445313 116.238281 257.371094 115.300781 257.230469 114.726563 C 257.144531 114.390625 257.003906 114.136719 256.789063 113.960938 C 256.574219 113.789063 256.347656 113.703125 256.09375 113.703125 C 255.964844 113.703125 255.792969 113.71875 255.585938 113.753906 L 255.585938 113.296875 L 259.875 112.175781 C 260.109375 112.820313 260.265625 113.417969 260.347656 113.988281 C 260.488281 114.859375 260.558594 115.871094 260.558594 117.027344 C 260.558594 117.441406 260.542969 118.066406 260.507813 118.90625 L 265.335938 112.175781 Z M 292.9375 106.507813 L 291.527344 112.175781 L 291.113281 112.175781 C 291.023438 111.285156 290.863281 110.578125 290.628906 110.042969 C 290.28125 109.273438 289.816406 108.675781 289.238281 108.257813 C 288.664063 107.839844 288.035156 107.628906 287.359375 107.628906 C 286.714844 107.628906 286.148438 107.871094 285.660156 108.359375 C 285.171875 108.851563 284.929688 109.402344 284.929688 110.015625 C 284.929688 110.628906 285.101563 111.222656 285.4375 111.8125 C 285.773438 112.398438 286.570313 113.285156 287.824219 114.46875 C 288.828125 115.414063 289.503906 116.226563 289.851563 116.90625 C 290.195313 117.589844 290.363281 118.328125 290.363281 119.128906 C 290.363281 120.019531 290.128906 120.847656 289.644531 121.601563 C 289.160156 122.359375 288.464844 122.941406 287.542969 123.359375 C 286.625 123.777344 285.582031 123.980469 284.421875 123.980469 C 283.703125 123.980469 282.804688 123.875 281.722656 123.664063 C 280.636719 123.457031 279.910156 123.351563 279.554688 123.351563 C 279.273438 123.351563 279.019531 123.398438 278.796875 123.480469 C 278.570313 123.570313 278.296875 123.734375 277.960938 123.980469 L 277.472656 123.980469 L 278.984375 117.609375 L 279.457031 117.609375 C 279.5625 118.726563 279.792969 119.679688 280.140625 120.460938 C 280.492188 121.246094 280.988281 121.855469 281.640625 122.296875 C 282.285156 122.734375 283.027344 122.960938 283.859375 122.960938 C 284.683594 122.960938 285.367188 122.691406 285.921875 122.152344 C 286.476563 121.613281 286.753906 120.980469 286.753906 120.257813 C 286.753906 119.644531 286.59375 119.050781 286.285156 118.484375 C 285.972656 117.914063 285.261719 117.09375 284.152344 116.007813 C 283.039063 114.921875 282.273438 113.953125 281.847656 113.101563 C 281.542969 112.46875 281.390625 111.792969 281.390625 111.078125 C 281.390625 109.839844 281.882813 108.769531 282.875 107.863281 C 283.863281 106.960938 285.15625 106.507813 286.753906 106.507813 C 287.476563 106.507813 288.425781 106.667969 289.605469 106.988281 C 290.296875 107.175781 290.78125 107.269531 291.066406 107.269531 C 291.304688 107.269531 291.523438 107.21875 291.714844 107.117188 C 291.90625 107.015625 292.132813 106.8125 292.386719 106.507813 Z M 298.257813 112.175781 L 295.835938 120.554688 C 295.71875 120.941406 295.660156 121.210938 295.660156 121.355469 C 295.660156 121.429688 295.6875 121.488281 295.75 121.53125 C 295.816406 121.59375 295.894531 121.625 295.988281 121.625 C 296.367188 121.625 296.882813 121.289063 297.519531 120.617188 C 298.433594 119.640625 299.390625 118.234375 300.402344 116.402344 L 301.53125 112.632813 L 304.6875 112.519531 L 302.296875 120.65625 C 302.09375 121.34375 301.996094 121.738281 301.996094 121.835938 C 301.996094 121.902344 302.027344 121.972656 302.089844 122.039063 C 302.148438 122.109375 302.214844 122.144531 302.28125 122.144531 C 302.398438 122.144531 302.511719 122.097656 302.617188 121.996094 C 302.914063 121.757813 303.3125 121.277344 303.800781 120.554688 L 304.226563 120.851563 C 303.074219 122.914063 301.800781 123.945313 300.414063 123.945313 C 299.898438 123.945313 299.488281 123.8125 299.195313 123.554688 C 298.902344 123.296875 298.753906 122.960938 298.753906 122.539063 C 298.753906 122.097656 298.855469 121.53125 299.066406 120.851563 L 299.675781 118.769531 C 298.597656 120.320313 297.808594 121.371094 297.320313 121.910156 C 296.570313 122.722656 295.941406 123.265625 295.429688 123.535156 C 294.917969 123.808594 294.429688 123.945313 293.964844 123.945313 C 293.523438 123.945313 293.144531 123.785156 292.824219 123.464844 C 292.507813 123.144531 292.34375 122.734375 292.34375 122.242188 C 292.34375 121.824219 292.445313 121.261719 292.65625 120.554688 L 294.0625 115.625 C 294.296875 114.820313 294.414063 114.277344 294.414063 114 C 294.414063 113.875 294.382813 113.769531 294.316406 113.671875 C 294.246094 113.578125 294.136719 113.503906 293.984375 113.449219 C 293.828125 113.398438 293.542969 113.367188 293.132813 113.367188 L 293.253906 112.902344 L 297.507813 112.175781 Z M 314.753906 120.378906 L 315.128906 120.710938 C 314.316406 121.664063 313.527344 122.363281 312.742188 122.804688 C 311.703125 123.398438 310.628906 123.691406 309.515625 123.691406 C 308.769531 123.691406 308.105469 123.53125 307.527344 123.214844 C 306.945313 122.902344 306.519531 122.460938 306.25 121.886719 C 305.972656 121.316406 305.835938 120.730469 305.835938 120.128906 C 305.835938 118.78125 306.207031 117.457031 306.945313 116.15625 C 307.6875 114.855469 308.660156 113.824219 309.875 113.0625 C 311.09375 112.304688 312.285156 111.921875 313.453125 111.921875 C 314.394531 111.921875 315.101563 112.128906 315.574219 112.539063 C 316.050781 112.949219 316.285156 113.457031 316.285156 114.066406 C 316.285156 114.617188 316.105469 115.085938 315.746094 115.472656 C 315.390625 115.859375 314.996094 116.050781 314.550781 116.050781 C 314.171875 116.050781 313.855469 115.925781 313.597656 115.683594 C 313.34375 115.433594 313.21875 115.144531 313.21875 114.808594 C 313.21875 114.363281 313.441406 113.976563 313.894531 113.648438 C 314.199219 113.417969 314.351563 113.21875 314.351563 113.046875 C 314.351563 112.898438 314.292969 112.777344 314.164063 112.6875 C 314 112.558594 313.78125 112.488281 313.519531 112.488281 C 312.820313 112.488281 312.164063 112.769531 311.546875 113.328125 C 310.734375 114.066406 310.109375 115.007813 309.679688 116.136719 C 309.246094 117.273438 309.027344 118.347656 309.027344 119.367188 C 309.027344 120.171875 309.25 120.8125 309.6875 121.292969 C 310.128906 121.773438 310.652344 122.015625 311.261719 122.015625 C 311.796875 122.015625 312.367188 121.878906 312.984375 121.609375 C 313.605469 121.335938 314.195313 120.925781 314.753906 120.378906 Z M 326.34375 120.628906 L 326.714844 120.960938 C 325.90625 121.917969 325.117188 122.613281 324.332031 123.054688 C 323.296875 123.648438 322.21875 123.945313 321.101563 123.945313 C 320.359375 123.945313 319.695313 123.785156 319.113281 123.46875 C 318.535156 123.152344 318.109375 122.710938 317.839844 122.140625 C 317.5625 121.566406 317.425781 120.980469 317.425781 120.382813 C 317.425781 119.035156 317.796875 117.710938 318.535156 116.410156 C 319.277344 115.105469 320.25 114.074219 321.464844 113.316406 C 322.683594 112.558594 323.871094 112.175781 325.042969 112.175781 C 325.984375 112.175781 326.691406 112.382813 327.164063 112.792969 C 327.640625 113.203125 327.875 113.710938 327.875 114.320313 C 327.875 114.871094 327.695313 115.339844 327.339844 115.726563 C 326.980469 116.113281 326.585938 116.304688 326.140625 116.304688 C 325.757813 116.304688 325.445313 116.179688 325.1875 115.933594 C 324.933594 115.6875 324.808594 115.398438 324.808594 115.058594 C 324.808594 114.613281 325.03125 114.226563 325.480469 113.898438 C 325.789063 113.671875 325.941406 113.46875 325.941406 113.296875 C 325.941406 113.152344 325.882813 113.027344 325.753906 112.941406 C 325.589844 112.808594 325.371094 112.742188 325.105469 112.742188 C 324.410156 112.742188 323.753906 113.019531 323.136719 113.578125 C 322.324219 114.320313 321.699219 115.257813 321.269531 116.390625 C 320.835938 117.523438 320.617188 118.601563 320.617188 119.621094 C 320.617188 120.421875 320.839844 121.066406 321.277344 121.546875 C 321.71875 122.027344 322.242188 122.269531 322.851563 122.269531 C 323.382813 122.269531 323.957031 122.128906 324.574219 121.863281 C 325.195313 121.589844 325.785156 121.179688 326.34375 120.628906 Z M 332.335938 118.976563 C 332.257813 119.511719 332.21875 119.953125 332.21875 120.296875 C 332.21875 120.910156 332.402344 121.40625 332.765625 121.773438 C 333.125 122.144531 333.605469 122.328125 334.214844 122.328125 C 334.796875 122.328125 335.382813 122.191406 335.96875 121.910156 C 336.550781 121.628906 337.234375 121.140625 338.007813 120.445313 L 338.378906 120.777344 C 337.425781 121.921875 336.492188 122.730469 335.585938 123.214844 C 334.679688 123.699219 333.679688 123.945313 332.582031 123.945313 C 331.191406 123.945313 330.230469 123.613281 329.699219 122.960938 C 329.167969 122.296875 328.902344 121.542969 328.902344 120.679688 C 328.902344 119.328125 329.300781 117.984375 330.09375 116.636719 C 330.886719 115.285156 331.96875 114.210938 333.335938 113.394531 C 334.703125 112.582031 336.074219 112.175781 337.457031 112.175781 C 338.15625 112.175781 338.683594 112.339844 339.042969 112.667969 C 339.398438 112.996094 339.578125 113.410156 339.578125 113.910156 C 339.578125 114.511719 339.402344 115.097656 339.054688 115.660156 C 338.570313 116.433594 337.964844 117.058594 337.234375 117.527344 C 336.5 118 335.683594 118.363281 334.777344 118.605469 C 334.167969 118.773438 333.355469 118.894531 332.335938 118.976563 Z M 332.445313 118.335938 C 333.175781 118.230469 333.742188 118.085938 334.148438 117.898438 C 334.546875 117.714844 334.941406 117.417969 335.328125 117.011719 C 335.71875 116.605469 336.054688 116.089844 336.335938 115.472656 C 336.617188 114.851563 336.761719 114.269531 336.761719 113.726563 C 336.761719 113.5 336.691406 113.320313 336.5625 113.183594 C 336.4375 113.054688 336.269531 112.992188 336.070313 112.992188 C 335.675781 112.992188 335.222656 113.265625 334.726563 113.816406 C 333.8125 114.816406 333.050781 116.328125 332.445313 118.335938 Z M 349.941406 112.175781 L 349.394531 115.980469 L 348.933594 115.980469 C 348.867188 114.996094 348.5625 114.222656 348.015625 113.65625 C 347.472656 113.085938 346.890625 112.804688 346.265625 112.804688 C 345.882813 112.804688 345.566406 112.914063 345.320313 113.136719 C 345.066406 113.355469 344.945313 113.625 344.945313 113.9375 C 344.945313 114.203125 344.996094 114.445313 345.105469 114.675781 C 345.214844 114.910156 345.453125 115.21875 345.828125 115.617188 C 347.140625 117.011719 347.941406 117.96875 348.222656 118.496094 C 348.507813 119.023438 348.648438 119.585938 348.648438 120.183594 C 348.648438 120.835938 348.480469 121.449219 348.148438 122.027344 C 347.8125 122.605469 347.320313 123.074219 346.65625 123.421875 C 345.996094 123.769531 345.3125 123.945313 344.59375 123.945313 C 344.109375 123.945313 343.519531 123.851563 342.8125 123.660156 C 342.34375 123.527344 341.996094 123.464844 341.765625 123.464844 C 341.558594 123.464844 341.394531 123.492188 341.277344 123.554688 C 341.160156 123.613281 341.03125 123.746094 340.886719 123.945313 L 340.429688 123.945313 L 341.039063 119.839844 L 341.4375 119.839844 C 341.730469 120.835938 342.003906 121.542969 342.253906 121.96875 C 342.511719 122.386719 342.847656 122.722656 343.273438 122.976563 C 343.695313 123.226563 344.101563 123.351563 344.492188 123.351563 C 344.953125 123.351563 345.328125 123.210938 345.628906 122.925781 C 345.929688 122.644531 346.078125 122.304688 346.078125 121.910156 C 346.078125 121.523438 345.980469 121.152344 345.78125 120.789063 C 345.585938 120.425781 345.140625 119.863281 344.433594 119.101563 C 343.460938 118.058594 342.820313 117.25 342.511719 116.683594 C 342.296875 116.277344 342.1875 115.804688 342.1875 115.277344 C 342.1875 114.394531 342.515625 113.65625 343.164063 113.0625 C 343.816406 112.46875 344.734375 112.175781 345.914063 112.175781 C 346.429688 112.175781 347.0625 112.269531 347.808594 112.449219 C 348.183594 112.535156 348.484375 112.582031 348.707031 112.582031 C 349.035156 112.582031 349.296875 112.449219 349.492188 112.175781 Z M 359.878906 112.175781 L 359.335938 115.980469 L 358.871094 115.980469 C 358.808594 114.996094 358.5 114.222656 357.953125 113.65625 C 357.410156 113.085938 356.828125 112.804688 356.203125 112.804688 C 355.820313 112.804688 355.503906 112.914063 355.257813 113.136719 C 355.007813 113.355469 354.882813 113.625 354.882813 113.9375 C 354.882813 114.203125 354.933594 114.445313 355.046875 114.675781 C 355.152344 114.910156 355.394531 115.21875 355.769531 115.617188 C 357.078125 117.011719 357.878906 117.96875 358.160156 118.496094 C 358.445313 119.023438 358.585938 119.585938 358.585938 120.183594 C 358.585938 120.835938 358.421875 121.449219 358.089844 122.027344 C 357.75 122.605469 357.257813 123.074219 356.59375 123.421875 C 355.933594 123.769531 355.246094 123.945313 354.53125 123.945313 C 354.046875 123.945313 353.457031 123.851563 352.75 123.660156 C 352.28125 123.527344 351.933594 123.464844 351.703125 123.464844 C 351.496094 123.464844 351.332031 123.492188 351.214844 123.554688 C 351.097656 123.613281 350.972656 123.746094 350.828125 123.945313 L 350.367188 123.945313 L 350.980469 119.839844 L 351.375 119.839844 C 351.667969 120.835938 351.941406 121.542969 352.191406 121.96875 C 352.449219 122.386719 352.785156 122.722656 353.210938 122.976563 C 353.636719 123.226563 354.039063 123.351563 354.429688 123.351563 C 354.890625 123.351563 355.265625 123.210938 355.566406 122.925781 C 355.867188 122.644531 356.015625 122.304688 356.015625 121.910156 C 356.015625 121.523438 355.917969 121.152344 355.722656 120.789063 C 355.523438 120.425781 355.078125 119.863281 354.371094 119.101563 C 353.398438 118.058594 352.757813 117.25 352.449219 116.683594 C 352.234375 116.277344 352.125 115.804688 352.125 115.277344 C 352.125 114.394531 352.453125 113.65625 353.105469 113.0625 C 353.753906 112.46875 354.675781 112.175781 355.851563 112.175781 C 356.367188 112.175781 357.003906 112.269531 357.746094 112.449219 C 358.121094 112.535156 358.421875 112.582031 358.644531 112.582031 C 358.972656 112.582031 359.230469 112.449219 359.433594 112.175781 Z M 363.8125 120.40625 C 364.386719 120.40625 364.871094 120.605469 365.273438 121 C 365.671875 121.390625 365.871094 121.871094 365.871094 122.429688 C 365.871094 122.984375 365.667969 123.464844 365.269531 123.855469 C 364.863281 124.25 364.378906 124.449219 363.8125 124.449219 C 363.25 124.449219 362.765625 124.25 362.367188 123.855469 C 361.96875 123.464844 361.769531 122.984375 361.769531 122.429688 C 361.769531 121.871094 361.96875 121.390625 362.367188 121 C 362.765625 120.605469 363.25 120.40625 363.8125 120.40625 "/>
<path style=" stroke:none;fill-rule:nonzero;fill:rgb(0%,29.026794%,54.101563%);fill-opacity:1;" d="M 238.199219 54.535156 C 239.277344 45.921875 242.339844 39.214844 247.355469 34.421875 C 252.390625 29.617188 258.855469 27.222656 266.753906 27.222656 C 274.859375 27.222656 280.808594 29.578125 284.601563 34.300781 C 287.191406 37.519531 288.652344 41.628906 288.976563 46.621094 L 275.761719 46.621094 C 275.046875 41.863281 272.386719 38.175781 266.777344 38.175781 C 257.738281 38.175781 252.488281 47.023438 251.550781 54.855469 C 250.613281 62.6875 252.921875 69.660156 261.164063 69.941406 C 267.578125 70.160156 271.46875 66.027344 273.660156 60.777344 L 287.429688 60.777344 C 286.566406 64.027344 285.394531 66.863281 283.921875 69.28125 C 281.511719 73.222656 278.359375 76.296875 274.472656 78.496094 C 270.570313 80.695313 265.933594 81.789063 260.527344 81.789063 C 255.042969 81.789063 250.617188 80.84375 247.246094 78.949219 C 243.894531 77.046875 241.355469 74.046875 239.625 69.945313 C 237.90625 65.839844 237.429688 60.703125 238.199219 54.535156 "/>
<path style=" stroke:none;fill-rule:evenodd;fill:rgb(0%,29.026794%,54.101563%);fill-opacity:1;" d="M 303.386719 74.585938 C 303.386719 75.742188 303.097656 76.820313 302.519531 77.820313 C 301.9375 78.820313 301.148438 79.605469 300.148438 80.183594 C 299.152344 80.757813 298.074219 81.046875 296.914063 81.046875 C 295.765625 81.046875 294.6875 80.757813 293.6875 80.183594 C 292.6875 79.605469 291.898438 78.820313 291.320313 77.820313 C 290.742188 76.820313 290.453125 75.742188 290.453125 74.585938 C 290.453125 73.433594 290.742188 72.355469 291.320313 71.355469 C 291.898438 70.351563 292.6875 69.5625 293.6875 68.988281 C 294.6875 68.40625 295.765625 68.121094 296.914063 68.121094 C 298.074219 68.121094 299.152344 68.40625 300.148438 68.988281 C 301.148438 69.5625 301.9375 70.351563 302.519531 71.355469 C 303.097656 72.355469 303.386719 73.433594 303.386719 74.585938 Z M 302.132813 74.585938 C 302.132813 73.144531 301.625 71.914063 300.605469 70.894531 C 299.585938 69.878906 298.355469 69.363281 296.914063 69.363281 C 295.476563 69.363281 294.246094 69.878906 293.226563 70.894531 C 292.207031 71.914063 291.699219 73.144531 291.699219 74.585938 C 291.699219 76.023438 292.207031 77.253906 293.226563 78.273438 C 294.246094 79.292969 295.476563 79.800781 296.914063 79.800781 C 298.355469 79.800781 299.585938 79.292969 300.605469 78.273438 C 301.625 77.253906 302.132813 76.023438 302.132813 74.585938 Z M 298.425781 75.382813 L 300.167969 75.796875 C 299.953125 76.476563 299.660156 77.003906 299.28125 77.371094 C 298.6875 77.941406 297.914063 78.226563 296.957031 78.226563 C 295.921875 78.226563 295.074219 77.890625 294.417969 77.222656 C 293.761719 76.550781 293.433594 75.667969 293.433594 74.566406 C 293.433594 73.523438 293.769531 72.660156 294.441406 71.980469 C 295.113281 71.300781 295.953125 70.957031 296.96875 70.957031 C 297.785156 70.957031 298.472656 71.175781 299.035156 71.613281 C 299.59375 72.046875 299.945313 72.609375 300.09375 73.296875 L 298.425781 73.550781 C 298.324219 73.09375 298.136719 72.753906 297.867188 72.53125 C 297.601563 72.308594 297.273438 72.195313 296.890625 72.195313 C 296.449219 72.195313 296.078125 72.382813 295.78125 72.757813 C 295.480469 73.136719 295.328125 73.722656 295.328125 74.527344 C 295.328125 75.332031 295.433594 75.90625 295.636719 76.253906 C 295.933594 76.75 296.359375 76.996094 296.90625 76.996094 C 297.25 76.996094 297.558594 76.871094 297.835938 76.617188 C 298.109375 76.363281 298.304688 75.953125 298.425781 75.382813 "/>
</g>
</svg>
