<svg width="18" height="22" viewBox="0 0 18 22" fill="none" xmlns="http://www.w3.org/2000/svg">
<path d="M13 9.66667V5C12.9968 3.94011 12.5744 2.92453 11.8249 2.17507C11.0755 1.42561 10.0599 1.00317 9 1V1C7.94011 1.00317 6.92453 1.42561 6.17507 2.17507C5.42561 2.92453 5.00317 3.94011 5 5V9.66667" stroke="#82858A" stroke-width="1.5" stroke-miterlimit="10"/>
<path d="M17 9.66699H1V21.0003H17V9.66699Z" stroke="#82858A" stroke-width="1.5" stroke-miterlimit="10" stroke-linecap="square"/>
<path d="M9 16.333V18.333" stroke="#82858A" stroke-width="1.5" stroke-miterlimit="10" stroke-linecap="square"/>
<path d="M9 16.333C10.1046 16.333 11 15.4376 11 14.333C11 13.2284 10.1046 12.333 9 12.333C7.89543 12.333 7 13.2284 7 14.333C7 15.4376 7.89543 16.333 9 16.333Z" stroke="#82858A" stroke-width="1.5" stroke-miterlimit="10" stroke-linecap="square"/>
</svg>
